# 3ds Max Wavefront OBJ Exporter v0.97b - (c)2007 guruware
# File Created: 27.07.2016 01:50:09

#
# object Sphere001
#

v  44.5836 39.7625 -68.2733
v  44.5836 -0.0000 -108.0358
v  4.8212 -0.0000 -68.2733
v  44.5836 -0.0000 -28.5108
v  84.3461 -0.0000 -68.2733
v  44.5836 -39.7625 -68.2733
# 6 vertices

vn 0.0000 1.0000 0.0000
vn -0.0000 0.0000 -1.0000
vn -1.0000 0.0000 0.0000
vn 0.0000 1.0000 0.0000
vn -1.0000 0.0000 0.0000
vn 0.0000 -0.0000 1.0000
vn 0.0000 1.0000 0.0000
vn 0.0000 -0.0000 1.0000
vn 1.0000 0.0000 -0.0000
vn 0.0000 1.0000 0.0000
vn 1.0000 0.0000 -0.0000
vn -0.0000 0.0000 -1.0000
vn 0.0000 -1.0000 0.0000
vn -1.0000 0.0000 0.0000
vn -0.0000 0.0000 -1.0000
vn 0.0000 -1.0000 0.0000
vn 0.0000 -0.0000 1.0000
vn -1.0000 0.0000 0.0000
vn 0.0000 -1.0000 0.0000
vn 1.0000 0.0000 -0.0000
vn 0.0000 -0.0000 1.0000
vn 0.0000 -1.0000 0.0000
vn -0.0000 0.0000 -1.0000
vn 1.0000 0.0000 -0.0000
# 24 vertex normals

vt 0.0000 1.0000 0.0000
vt 0.2500 1.0000 0.0000
vt 0.5000 1.0000 0.0000
vt 0.7500 1.0000 0.0000
vt 1.0000 1.0000 0.0000
vt 0.0000 0.5000 0.0000
vt 0.2500 0.5000 0.0000
vt 0.5000 0.5000 0.0000
vt 0.7500 0.5000 0.0000
vt 1.0000 0.5000 0.0000
vt 0.0000 0.0000 0.0000
vt 0.2500 0.0000 0.0000
vt 0.5000 0.0000 0.0000
vt 0.7500 0.0000 0.0000
vt 1.0000 0.0000 0.0000
# 15 texture coords

g Sphere001
f 1/1/1 2/6/2 3/7/3 
f 1/2/4 3/7/5 4/8/6 
f 1/3/7 4/8/8 5/9/9 
f 1/4/10 5/9/11 2/10/12 
f 6/11/13 3/7/14 2/6/15 
f 6/12/16 4/8/17 3/7/18 
f 6/13/19 5/9/20 4/8/21 
f 6/14/22 2/10/23 5/9/24 
# 8 faces

